<svg xmlns="http://www.w3.org/2000/svg" viewBox="0 0 128 128" fill="none" role="img" aria-hidden="true">
  <defs>
    <linearGradient id="bg" x1="24" y1="14" x2="106" y2="116" gradientUnits="userSpaceOnUse">
      <stop stop-color="#78C9FF"/>
      <stop offset="0.52" stop-color="#5B9BF6"/>
      <stop offset="1" stop-color="#5067DB"/>
    </linearGradient>
    <linearGradient id="paper" x1="40" y1="34" x2="90" y2="104" gradientUnits="userSpaceOnUse">
      <stop stop-color="#FFFFFF"/>
      <stop offset="1" stop-color="#EAF4FF"/>
    </linearGradient>
    <linearGradient id="gloss" x1="22" y1="12" x2="77" y2="70" gradientUnits="userSpaceOnUse">
      <stop stop-color="#FFFFFF" stop-opacity=".88"/>
      <stop offset="1" stop-color="#FFFFFF" stop-opacity="0"/>
    </linearGradient>
    <filter id="shadow" x="-25%" y="-25%" width="150%" height="160%">
      <feDropShadow dx="0" dy="7" stdDeviation="6" flood-color="#173C72" flood-opacity=".34"/>
    </filter>
  </defs>
  <rect x="10" y="8" width="108" height="110" rx="30" fill="url(#bg)" filter="url(#shadow)"/>
  <rect x="14" y="12" width="100" height="102" rx="26" stroke="#DDF2FF" stroke-width="4"/>
  <path d="M28 29C39 19 53 15 71 15" stroke="url(#gloss)" stroke-width="10" stroke-linecap="round"/>
  <rect x="31" y="28" width="66" height="76" rx="16" fill="url(#paper)"/>
  <rect x="43" y="42" width="14" height="14" rx="7" fill="#5B86EA"/>
  <path d="M46.5 49.5L49.4 52.4L54.5 46.7" stroke="#fff" stroke-width="3.8" stroke-linecap="round" stroke-linejoin="round"/>
  <rect x="63" y="45" width="23" height="6" rx="3" fill="#9DBBEF"/>
  <rect x="43" y="62" width="14" height="14" rx="7" fill="#5B86EA"/>
  <path d="M46.5 69.5L49.4 72.4L54.5 66.7" stroke="#fff" stroke-width="3.8" stroke-linecap="round" stroke-linejoin="round"/>
  <rect x="63" y="65" width="23" height="6" rx="3" fill="#9DBBEF"/>
  <rect x="43" y="82" width="14" height="14" rx="7" fill="#AFC4E9"/>
  <rect x="63" y="85" width="23" height="6" rx="3" fill="#B8CAE7"/>
  <path d="M87 91C91.5 91 95 94.5 95 99C95 103.5 91.5 107 87 107C82.5 107 79 103.5 79 99C79 94.5 82.5 91 87 91Z" fill="#FFFFFF" stroke="#4664CF" stroke-width="3"/>
  <path d="M83.8 99.1L86.4 101.7L91.2 96.4" stroke="#4664CF" stroke-width="3" stroke-linecap="round" stroke-linejoin="round"/>
</svg>